<svg width="317" height="178" viewBox="0 0 317 178" fill="none" xmlns="http://www.w3.org/2000/svg">
<g filter="url(#filter0_d)">
<path d="M247.804 75.5C266.434 75.5 281.534 90.644 281.534 109.325V139.892C281.534 142.39 278.522 143.642 276.761 141.875C275.669 140.78 273.899 140.78 272.807 141.875L270.011 144.679C268.919 145.774 267.149 145.774 266.057 144.679L263.261 141.875C262.169 140.78 260.399 140.78 259.307 141.875L256.511 144.679C255.419 145.774 253.649 145.774 252.557 144.679L249.761 141.875C248.669 140.78 246.899 140.78 245.807 141.875L243.011 144.679C241.919 145.774 240.149 145.774 239.057 144.679L236.261 141.875C235.169 140.78 233.399 140.78 232.307 141.875L229.529 144.661C228.437 145.756 226.667 145.756 225.575 144.661L222.792 141.87C221.702 140.777 219.936 140.774 218.843 141.864L218.802 141.906C217.038 143.665 214.034 142.412 214.034 139.918V109.325C214.034 90.644 229.135 75.5 247.764 75.5H247.804V75.5Z" fill="#EAFF74"/>
<path fill-rule="evenodd" clip-rule="evenodd" d="M247.804 76.5C238.727 76.5 230.544 80.173 224.621 86.113C218.698 92.053 215.034 100.26 215.034 109.325V139.918C215.034 140.302 215.141 140.641 215.326 140.918C215.526 141.22 215.816 141.448 216.141 141.584C216.467 141.719 216.831 141.764 217.185 141.694C217.51 141.63 217.825 141.467 218.095 141.198C218.889 140.406 219.857 140.048 220.82 140.048C221.79 140.05 222.76 140.421 223.5 141.164L226.283 143.954C226.633 144.306 227.093 144.482 227.552 144.482C228.012 144.482 228.471 144.306 228.821 143.955L231.599 141.169C232.341 140.425 233.312 140.054 234.284 140.054C235.256 140.054 236.228 140.425 236.969 141.169L239.765 143.973C240.115 144.324 240.575 144.5 241.035 144.5C241.493 144.5 241.952 144.324 242.303 143.973L245.099 141.169C245.84 140.425 246.812 140.054 247.784 140.054C248.756 140.054 249.728 140.425 250.469 141.169L253.265 143.973C253.615 144.324 254.075 144.5 254.535 144.5C254.993 144.5 255.453 144.324 255.803 143.973L258.599 141.169C259.34 140.425 260.312 140.054 261.284 140.054C262.256 140.054 263.228 140.425 263.969 141.169L266.765 143.973C267.115 144.324 267.575 144.5 268.034 144.5C268.494 144.5 268.953 144.324 269.303 143.973L272.099 141.169C272.841 140.425 273.812 140.054 274.784 140.054C275.756 140.054 276.728 140.425 277.469 141.169C277.739 141.439 278.054 141.604 278.379 141.669C278.734 141.739 279.099 141.695 279.424 141.559C279.751 141.424 280.04 141.196 280.242 140.894C280.427 140.617 280.534 140.277 280.534 139.892V109.325C280.534 100.26 276.87 92.054 270.947 86.113C265.024 80.173 256.842 76.5 247.804 76.5Z" stroke="#0E1118" stroke-width="2"/>
<path d="M209.034 111.125C209.034 119.755 215.19 126.75 222.784 126.75C230.378 126.75 236.534 119.754 236.534 111.125C236.534 102.495 230.378 95.5 222.784 95.5C215.19 95.5 209.034 102.496 209.034 111.125Z" fill="white"/>
<path fill-rule="evenodd" clip-rule="evenodd" d="M222.784 96.5C219.276 96.5 216.108 98.128 213.812 100.737C211.472 103.396 210.034 107.07 210.034 111.125C210.034 115.179 211.473 118.855 213.812 121.513C216.108 124.123 219.276 125.75 222.784 125.75C226.292 125.75 229.46 124.122 231.756 121.513C234.096 118.854 235.534 115.179 235.534 111.125C235.534 107.07 234.095 103.395 231.756 100.737C229.46 98.127 226.292 96.5 222.784 96.5Z" stroke="#0E1118" stroke-width="2"/>
<path d="M218.678 110.844L212.784 109.116C213.466 104.904 216.248 101.75 219.578 101.75C223.42 101.75 226.534 105.947 226.534 111.125C226.534 116.303 223.42 120.5 219.578 120.5C216.454 120.5 213.812 117.725 212.933 113.904L218.678 110.844Z" fill="#181B22"/>
<path d="M234.034 111.125C234.034 119.755 240.19 126.75 247.784 126.75C255.378 126.75 261.534 119.754 261.534 111.125C261.534 102.495 255.378 95.5 247.784 95.5C240.19 95.5 234.034 102.496 234.034 111.125Z" fill="white"/>
<path fill-rule="evenodd" clip-rule="evenodd" d="M247.784 96.5C244.276 96.5 241.108 98.128 238.812 100.737C236.472 103.396 235.034 107.07 235.034 111.125C235.034 115.179 236.473 118.855 238.812 121.513C241.108 124.123 244.276 125.75 247.784 125.75C251.292 125.75 254.46 124.122 256.756 121.513C259.096 118.854 260.534 115.179 260.534 111.125C260.534 107.07 259.095 103.395 256.756 100.737C254.46 98.127 251.292 96.5 247.784 96.5Z" stroke="#0E1118" stroke-width="2"/>
<path d="M243.678 110.844L237.784 109.116C238.466 104.904 241.248 101.75 244.578 101.75C248.42 101.75 251.534 105.947 251.534 111.125C251.534 116.303 248.42 120.5 244.578 120.5C241.454 120.5 238.812 117.725 237.933 113.904L243.678 110.844V110.844Z" fill="#181B22"/>
</g>
<path d="M14.3311 137.5C19.8731 106.14 34.9281 84.612 59.4941 72.92C84.0611 61.227 124.673 68.454 181.331 94.602" stroke="#323D4B" stroke-width="3" stroke-linecap="round"/>
<path d="M3.56787 122.13L13.5573 138.262L30.0072 128.88" stroke="#323D4B" stroke-width="3" stroke-linecap="round" stroke-linejoin="round"/>
<g filter="url(#filter1_d)">
<path d="M280.284 17C285.669 17 290.544 19.183 294.073 22.711C297.601 26.241 299.784 31.115 299.784 36.5C299.784 41.885 297.601 46.76 294.073 50.289C290.543 53.817 285.669 56 280.284 56H251.001L245.284 65.528L239.567 56H210.284C204.899 56 200.024 53.817 196.495 50.289C192.967 46.759 190.784 41.885 190.784 36.5C190.784 31.115 192.967 26.24 196.495 22.711C200.025 19.183 204.899 17 210.284 17H280.284Z" fill="#1F2733" stroke="#323D4B"/>
<path d="M211.034 44.806C213.77 44.806 215.84 43.438 216.722 40.972L214.346 40.072C213.86 41.602 212.69 42.376 211.034 42.376C208.748 42.376 207.38 40.864 207.38 38.2C207.38 35.536 208.712 34.042 211.016 34.042C212.636 34.042 213.824 34.798 214.346 36.292L216.686 35.374C215.768 32.98 213.734 31.63 211.016 31.63C207.272 31.63 204.842 34.204 204.842 38.218C204.842 42.214 207.29 44.806 211.034 44.806ZM220.022 44.698C220.436 44.698 220.94 44.608 221.462 44.41V42.484C221.228 42.538 221.012 42.574 220.832 42.574C220.472 42.574 220.256 42.466 220.256 42.052V31.954H217.826V42.304C217.826 43.96 218.78 44.698 220.022 44.698ZM222.89 34.168H225.41V31.954H222.89V34.168ZM222.926 44.5H225.374V35.626H222.926V44.5ZM231.255 44.698C233.055 44.698 234.441 43.672 235.035 42.016L232.839 41.152C232.641 42.016 232.011 42.556 231.219 42.556C229.833 42.556 229.365 41.35 229.365 40.09C229.365 38.812 229.851 37.552 231.237 37.552C232.029 37.552 232.641 38.128 232.821 39.01L235.125 38.092C234.459 36.292 233.055 35.428 231.237 35.428C228.267 35.428 226.863 37.75 226.863 40.09C226.863 42.394 228.249 44.698 231.255 44.698ZM236.444 44.5H238.892V41.908L240.044 40.594L242.492 44.5H245.39L241.772 39.01L245.048 35.626H241.79L238.892 38.884V31.954H236.444V44.5ZM255.74 35.428C254.606 35.428 253.724 35.788 253.148 36.544V31.954H250.7V44.5H253.148V41.116C253.148 38.704 253.544 37.552 254.966 37.552C256.01 37.552 256.514 38.11 256.514 39.298V44.5H258.944V38.686C258.944 36.634 257.756 35.428 255.74 35.428ZM268.722 40.036C268.722 37.444 267.336 35.428 264.564 35.428C261.504 35.428 260.28 37.84 260.28 40.108C260.28 42.43 261.54 44.698 264.708 44.698C266.238 44.698 267.462 44.122 268.416 43.06L266.724 41.566C266.166 42.232 265.464 42.484 264.726 42.484C263.448 42.484 262.818 41.818 262.71 40.882H268.668C268.704 40.558 268.722 40.306 268.722 40.036ZM262.692 39.028C262.8 38.308 263.304 37.462 264.546 37.462C265.554 37.462 266.364 38.056 266.4 39.028H262.692ZM275.016 35.428C274.044 35.428 273.108 36.022 272.712 37.03V35.626H270.246V44.5H272.694V40.198C272.694 38.578 273.324 37.84 274.458 37.84C274.89 37.84 275.304 37.966 275.574 38.146L276.744 35.968C276.15 35.59 275.61 35.428 275.016 35.428ZM284.858 40.036C284.858 37.444 283.472 35.428 280.7 35.428C277.64 35.428 276.416 37.84 276.416 40.108C276.416 42.43 277.676 44.698 280.844 44.698C282.374 44.698 283.598 44.122 284.552 43.06L282.86 41.566C282.302 42.232 281.6 42.484 280.862 42.484C279.584 42.484 278.954 41.818 278.846 40.882H284.804C284.84 40.558 284.858 40.306 284.858 40.036ZM278.828 39.028C278.936 38.308 279.44 37.462 280.682 37.462C281.69 37.462 282.5 38.056 282.536 39.028H278.828ZM287.049 40.63H288.903L289.191 31.954H286.779L287.049 40.63ZM286.689 44.5H289.263V42.052H286.689V44.5Z" fill="white"/>
</g>
<defs>
<filter id="filter0_d" x="177.034" y="43.5" width="136.5" height="134" filterUnits="userSpaceOnUse" color-interpolation-filters="sRGB">
<feFlood flood-opacity="0" result="BackgroundImageFix"/>
<feColorMatrix in="SourceAlpha" type="matrix" values="0 0 0 0 0 0 0 0 0 0 0 0 0 0 0 0 0 0 127 0" result="hardAlpha"/>
<feOffset/>
<feGaussianBlur stdDeviation="16"/>
<feColorMatrix type="matrix" values="0 0 0 0 0 0 0 0 0 0 0 0 0 0 0 0 0 0 0.5 0"/>
<feBlend mode="normal" in2="BackgroundImageFix" result="effect1_dropShadow"/>
<feBlend mode="normal" in="SourceGraphic" in2="effect1_dropShadow" result="shape"/>
</filter>
<filter id="filter1_d" x="174.284" y="0.5" width="142" height="81.9998" filterUnits="userSpaceOnUse" color-interpolation-filters="sRGB">
<feFlood flood-opacity="0" result="BackgroundImageFix"/>
<feColorMatrix in="SourceAlpha" type="matrix" values="0 0 0 0 0 0 0 0 0 0 0 0 0 0 0 0 0 0 127 0" result="hardAlpha"/>
<feOffset/>
<feGaussianBlur stdDeviation="8"/>
<feColorMatrix type="matrix" values="0 0 0 0 0 0 0 0 0 0 0 0 0 0 0 0 0 0 0.5 0"/>
<feBlend mode="normal" in2="BackgroundImageFix" result="effect1_dropShadow"/>
<feBlend mode="normal" in="SourceGraphic" in2="effect1_dropShadow" result="shape"/>
</filter>
</defs>
</svg>
