<svg width="414" height="254" viewBox="0 0 414 254" fill="none" xmlns="http://www.w3.org/2000/svg">
<path d="M53.2 196H72.94V154.7H113.26V196H133V98.42H113.26V136.64H72.94V98.42H53.2V196ZM212.322 161.28C212.322 141.12 201.542 125.44 179.982 125.44C156.182 125.44 146.662 144.2 146.662 161.84C146.662 179.9 156.462 197.54 181.102 197.54C193.002 197.54 202.522 193.06 209.942 184.8L196.782 173.18C192.442 178.36 186.982 180.32 181.242 180.32C171.302 180.32 166.402 175.14 165.562 167.86H211.902C212.182 165.34 212.322 163.38 212.322 161.28ZM165.422 153.44C166.262 147.84 170.182 141.26 179.842 141.26C187.682 141.26 193.982 145.88 194.262 153.44H165.422ZM240.559 197.54C243.779 197.54 247.699 196.84 251.759 195.3V180.32C249.939 180.74 248.259 181.02 246.859 181.02C244.059 181.02 242.379 180.18 242.379 176.96V98.42H223.479V178.92C223.479 191.8 230.899 197.54 240.559 197.54ZM279.524 197.54C282.744 197.54 286.664 196.84 290.724 195.3V180.32C288.904 180.74 287.224 181.02 285.824 181.02C283.024 181.02 281.344 180.18 281.344 176.96V98.42H262.444V178.92C262.444 191.8 269.864 197.54 279.524 197.54ZM330.949 197.54C352.649 197.54 365.949 180.6 365.949 161.42C365.949 142.1 352.789 125.44 330.949 125.44C308.969 125.44 295.949 142.1 295.949 161.42C295.949 180.6 309.109 197.54 330.949 197.54ZM330.949 180.88C318.769 180.88 314.849 171.22 314.849 161.42C314.849 151.34 318.909 141.96 330.949 141.96C343.129 141.96 347.049 151.34 347.049 161.42C347.049 171.36 342.989 180.88 330.949 180.88Z" fill="#06A6ED"/>
<path d="M53.2 196H52.7V196.5H53.2V196ZM72.94 196V196.5H73.44V196H72.94ZM72.94 154.7V154.2H72.44V154.7H72.94ZM113.26 154.7H113.76V154.2H113.26V154.7ZM113.26 196H112.76V196.5H113.26V196ZM133 196V196.5H133.5V196H133ZM133 98.42H133.5V97.92H133V98.42ZM113.26 98.42V97.92H112.76V98.42H113.26ZM113.26 136.64V137.14H113.76V136.64H113.26ZM72.94 136.64H72.44V137.14H72.94V136.64ZM72.94 98.42H73.44V97.92H72.94V98.42ZM53.2 98.42V97.92H52.7V98.42H53.2ZM53.2 196.5H72.94V195.5H53.2V196.5ZM73.44 196V154.7H72.44V196H73.44ZM72.94 155.2H113.26V154.2H72.94V155.2ZM112.76 154.7V196H113.76V154.7H112.76ZM113.26 196.5H133V195.5H113.26V196.5ZM133.5 196V98.42H132.5V196H133.5ZM133 97.92H113.26V98.92H133V97.92ZM112.76 98.42V136.64H113.76V98.42H112.76ZM113.26 136.14H72.94V137.14H113.26V136.14ZM73.44 136.64V98.42H72.44V136.64H73.44ZM72.94 97.92H53.2V98.92H72.94V97.92ZM52.7 98.42V196H53.7V98.42H52.7ZM209.942 184.8L210.314 185.134L210.651 184.759L210.273 184.425L209.942 184.8ZM196.782 173.18L197.113 172.805L196.728 172.466L196.399 172.859L196.782 173.18ZM165.562 167.86V167.36H165.001L165.065 167.917L165.562 167.86ZM211.902 167.86V168.36H212.35L212.399 167.915L211.902 167.86ZM165.422 153.44L164.928 153.366L164.841 153.94H165.422V153.44ZM194.262 153.44V153.94H194.781L194.762 153.421L194.262 153.44ZM212.822 161.28C212.822 151.117 210.105 142.032 204.62 135.479C199.126 128.914 190.894 124.94 179.982 124.94V125.94C190.63 125.94 198.568 129.806 203.854 136.121C209.149 142.448 211.822 151.283 211.822 161.28H212.822ZM179.982 124.94C167.933 124.94 159.455 129.697 154.002 136.718C148.563 143.722 146.162 152.939 146.162 161.84H147.162C147.162 153.101 149.521 144.118 154.792 137.332C160.049 130.563 168.231 125.94 179.982 125.94V124.94ZM146.162 161.84C146.162 170.953 148.634 180.002 154.257 186.782C159.893 193.577 168.651 198.04 181.102 198.04V197.04C168.913 197.04 160.451 192.683 155.027 186.143C149.59 179.588 147.162 170.787 147.162 161.84H146.162ZM181.102 198.04C193.146 198.04 202.8 193.498 210.314 185.134L209.57 184.466C202.244 192.622 192.858 197.04 181.102 197.04V198.04ZM210.273 184.425L197.113 172.805L196.451 173.555L209.611 185.175L210.273 184.425ZM196.399 172.859C192.167 177.91 186.855 179.82 181.242 179.82V180.82C187.109 180.82 192.718 178.81 197.165 173.501L196.399 172.859ZM181.242 179.82C176.358 179.82 172.774 178.548 170.315 176.44C167.857 174.334 166.467 171.345 166.059 167.803L165.065 167.917C165.497 171.655 166.977 174.896 169.664 177.2C172.35 179.502 176.186 180.82 181.242 180.82V179.82ZM165.562 168.36H211.902V167.36H165.562V168.36ZM212.399 167.915C212.68 165.384 212.822 163.405 212.822 161.28H211.822C211.822 163.355 211.684 165.296 211.405 167.805L212.399 167.915ZM165.916 153.514C166.325 150.792 167.48 147.852 169.682 145.6C171.874 143.358 175.137 141.76 179.842 141.76V140.76C174.887 140.76 171.36 142.452 168.967 144.9C166.584 147.338 165.359 150.488 164.928 153.366L165.916 153.514ZM179.842 141.76C187.496 141.76 193.495 146.243 193.762 153.459L194.762 153.421C194.469 145.517 187.868 140.76 179.842 140.76V141.76ZM194.262 152.94H165.422V153.94H194.262V152.94ZM251.759 195.3L251.937 195.767L252.259 195.645V195.3H251.759ZM251.759 180.32H252.259V179.691L251.647 179.833L251.759 180.32ZM242.379 98.42H242.879V97.92H242.379V98.42ZM223.479 98.42V97.92H222.979V98.42H223.479ZM240.559 198.04C243.847 198.04 247.827 197.326 251.937 195.767L251.582 194.833C247.572 196.354 243.712 197.04 240.559 197.04V198.04ZM252.259 195.3V180.32H251.259V195.3H252.259ZM251.647 179.833C249.838 180.25 248.202 180.52 246.859 180.52V181.52C248.317 181.52 250.041 181.23 251.872 180.807L251.647 179.833ZM246.859 180.52C245.486 180.52 244.513 180.309 243.881 179.806C243.276 179.325 242.879 178.488 242.879 176.96H241.879C241.879 178.652 242.323 179.845 243.258 180.589C244.166 181.311 245.432 181.52 246.859 181.52V180.52ZM242.879 176.96V98.42H241.879V176.96H242.879ZM242.379 97.92H223.479V98.92H242.379V97.92ZM222.979 98.42V178.92H223.979V98.42H222.979ZM222.979 178.92C222.979 185.456 224.864 190.253 228.044 193.415C231.223 196.575 235.632 198.04 240.559 198.04V197.04C235.827 197.04 231.696 195.635 228.749 192.705C225.805 189.777 223.979 185.264 223.979 178.92H222.979ZM290.724 195.3L290.902 195.767L291.224 195.645V195.3H290.724ZM290.724 180.32H291.224V179.691L290.612 179.833L290.724 180.32ZM281.344 98.42H281.844V97.92H281.344V98.42ZM262.444 98.42V97.92H261.944V98.42H262.444ZM279.524 198.04C282.812 198.04 286.792 197.326 290.902 195.767L290.547 194.833C286.537 196.354 282.677 197.04 279.524 197.04V198.04ZM291.224 195.3V180.32H290.224V195.3H291.224ZM290.612 179.833C288.803 180.25 287.167 180.52 285.824 180.52V181.52C287.282 181.52 289.006 181.23 290.837 180.807L290.612 179.833ZM285.824 180.52C284.451 180.52 283.477 180.309 282.845 179.806C282.241 179.325 281.844 178.488 281.844 176.96H280.844C280.844 178.652 281.288 179.845 282.223 180.589C283.131 181.311 284.397 181.52 285.824 181.52V180.52ZM281.844 176.96V98.42H280.844V176.96H281.844ZM281.344 97.92H262.444V98.92H281.344V97.92ZM261.944 98.42V178.92H262.944V98.42H261.944ZM261.944 178.92C261.944 185.456 263.829 190.253 267.009 193.415C270.187 196.575 274.597 198.04 279.524 198.04V197.04C274.792 197.04 270.661 195.635 267.714 192.705C264.769 189.777 262.944 185.264 262.944 178.92H261.944ZM330.949 198.04C352.968 198.04 366.449 180.831 366.449 161.42H365.449C365.449 180.369 352.33 197.04 330.949 197.04V198.04ZM366.449 161.42C366.449 141.867 353.106 124.94 330.949 124.94V125.94C352.472 125.94 365.449 142.333 365.449 161.42H366.449ZM330.949 124.94C319.824 124.94 310.938 129.16 304.837 135.848C298.742 142.53 295.449 151.649 295.449 161.42H296.449C296.449 151.871 299.667 143 305.576 136.522C311.48 130.05 320.094 125.94 330.949 125.94V124.94ZM295.449 161.42C295.449 180.829 308.788 198.04 330.949 198.04V197.04C309.43 197.04 296.449 180.371 296.449 161.42H295.449ZM330.949 180.38C325.013 180.38 321.147 178.038 318.744 174.542C316.32 171.017 315.349 166.266 315.349 161.42H314.349C314.349 166.374 315.338 171.353 317.92 175.108C320.521 178.892 324.705 181.38 330.949 181.38V180.38ZM315.349 161.42C315.349 156.435 316.355 151.685 318.794 148.196C321.213 144.735 325.08 142.46 330.949 142.46V141.46C324.779 141.46 320.595 143.875 317.974 147.624C315.373 151.345 314.349 156.325 314.349 161.42H315.349ZM330.949 142.46C336.89 142.46 340.755 144.737 343.156 148.195C345.577 151.683 346.549 156.432 346.549 161.42H347.549C347.549 156.328 346.561 151.347 343.977 147.625C341.373 143.873 337.188 141.46 330.949 141.46V142.46ZM346.549 161.42C346.549 166.334 345.544 171.085 343.104 174.592C340.683 178.072 336.816 180.38 330.949 180.38V181.38C337.122 181.38 341.305 178.928 343.925 175.163C346.525 171.425 347.549 166.446 347.549 161.42H346.549Z" fill="#FF69EB"/>
<g filter="url(#filter0_d)">
<path fill-rule="evenodd" clip-rule="evenodd" d="M22.5 56.5H391.5V231.5H22.5V56.5Z" stroke="#9AA3B1"/>
<g filter="url(#filter1_d)">
<path d="M22 62C25.3137 62 28 59.3137 28 56C28 52.6863 25.3137 50 22 50C18.6863 50 16 52.6863 16 56C16 59.3137 18.6863 62 22 62Z" fill="black"/>
</g>
<path d="M22 62C25.3137 62 28 59.3137 28 56C28 52.6863 25.3137 50 22 50C18.6863 50 16 52.6863 16 56C16 59.3137 18.6863 62 22 62Z" fill="white"/>
<g filter="url(#filter2_d)">
<path d="M22 238C25.3137 238 28 235.314 28 232C28 228.686 25.3137 226 22 226C18.6863 226 16 228.686 16 232C16 235.314 18.6863 238 22 238Z" fill="black"/>
</g>
<path d="M22 238C25.3137 238 28 235.314 28 232C28 228.686 25.3137 226 22 226C18.6863 226 16 228.686 16 232C16 235.314 18.6863 238 22 238Z" fill="white"/>
<g filter="url(#filter3_d)">
<path d="M392 62C395.314 62 398 59.3137 398 56C398 52.6863 395.314 50 392 50C388.686 50 386 52.6863 386 56C386 59.3137 388.686 62 392 62Z" fill="black"/>
</g>
<path d="M392 62C395.314 62 398 59.3137 398 56C398 52.6863 395.314 50 392 50C388.686 50 386 52.6863 386 56C386 59.3137 388.686 62 392 62Z" fill="white"/>
<g filter="url(#filter4_d)">
<path d="M392 238C395.314 238 398 235.314 398 232C398 228.686 395.314 226 392 226C388.686 226 386 228.686 386 232C386 235.314 388.686 238 392 238Z" fill="black"/>
</g>
<path d="M392 238C395.314 238 398 235.314 398 232C398 228.686 395.314 226 392 226C388.686 226 386 228.686 386 232C386 235.314 388.686 238 392 238Z" fill="white"/>
</g>
<g filter="url(#filter5_d)">
<path d="M58 16H26C23.7909 16 22 17.7909 22 20V36C22 38.2091 23.7909 40 26 40H58C60.2091 40 62 38.2091 62 36V20C62 17.7909 60.2091 16 58 16Z" fill="#06A6ED"/>
<path d="M37.842 32L34.104 25.98L37.786 22.242H35.196L31.094 26.54V22.242H29.12V32H31.094V29.018L32.76 27.324L35.56 32H37.842ZM41.1553 24.944C39.9233 24.944 38.7753 25.392 37.9353 26.344L39.3073 27.492C39.8673 26.862 40.4553 26.596 41.0713 26.596C41.8553 26.596 42.3173 27.002 42.3173 27.632V27.786H40.4973C39.7973 27.786 39.2373 27.884 38.7893 28.108C38.1593 28.43 37.7953 29.018 37.7953 29.83C37.7953 31.188 38.8733 32.154 40.3713 32.154C41.0713 32.154 41.8413 31.902 42.3313 31.202L42.4713 32H44.2073V27.632C44.2073 25.98 43.0453 24.944 41.1553 24.944ZM40.6793 30.586C40.0353 30.586 39.6853 30.278 39.6853 29.858C39.6853 29.648 39.7693 29.48 39.9373 29.368C40.1053 29.242 40.3713 29.186 40.7633 29.186H42.3173C42.3033 29.984 41.5613 30.586 40.6793 30.586ZM45.7524 23.964H47.7124V22.242H45.7524V23.964ZM45.7804 32H47.6844V25.098H45.7804V32ZM53.3645 24.944C52.5805 24.944 51.8525 25.168 51.3485 25.812V25.098H49.4445V32H51.3485V29.004C51.3485 28.01 51.3485 26.596 52.7765 26.596C53.9665 26.596 53.9665 27.576 53.9665 28.08V32H55.8565V27.478C55.8565 25.896 54.9465 24.944 53.3645 24.944Z" fill="white"/>
</g>
<defs>
<filter id="filter0_d" x="0" y="34" width="414" height="220" filterUnits="userSpaceOnUse" color-interpolation-filters="sRGB">
<feFlood flood-opacity="0" result="BackgroundImageFix"/>
<feColorMatrix in="SourceAlpha" type="matrix" values="0 0 0 0 0 0 0 0 0 0 0 0 0 0 0 0 0 0 127 0" result="hardAlpha"/>
<feOffset/>
<feGaussianBlur stdDeviation="8"/>
<feColorMatrix type="matrix" values="0 0 0 0 0 0 0 0 0 0 0 0 0 0 0 0 0 0 0.5 0"/>
<feBlend mode="normal" in2="BackgroundImageFix" result="effect1_dropShadow"/>
<feBlend mode="normal" in="SourceGraphic" in2="effect1_dropShadow" result="shape"/>
</filter>
<filter id="filter1_d" x="12" y="46" width="20" height="20" filterUnits="userSpaceOnUse" color-interpolation-filters="sRGB">
<feFlood flood-opacity="0" result="BackgroundImageFix"/>
<feColorMatrix in="SourceAlpha" type="matrix" values="0 0 0 0 0 0 0 0 0 0 0 0 0 0 0 0 0 0 127 0" result="hardAlpha"/>
<feOffset/>
<feGaussianBlur stdDeviation="2"/>
<feColorMatrix type="matrix" values="0 0 0 0 0 0 0 0 0 0 0 0 0 0 0 0 0 0 0.3 0"/>
<feBlend mode="normal" in2="BackgroundImageFix" result="effect1_dropShadow"/>
<feBlend mode="normal" in="SourceGraphic" in2="effect1_dropShadow" result="shape"/>
</filter>
<filter id="filter2_d" x="12" y="222" width="20" height="20" filterUnits="userSpaceOnUse" color-interpolation-filters="sRGB">
<feFlood flood-opacity="0" result="BackgroundImageFix"/>
<feColorMatrix in="SourceAlpha" type="matrix" values="0 0 0 0 0 0 0 0 0 0 0 0 0 0 0 0 0 0 127 0" result="hardAlpha"/>
<feOffset/>
<feGaussianBlur stdDeviation="2"/>
<feColorMatrix type="matrix" values="0 0 0 0 0 0 0 0 0 0 0 0 0 0 0 0 0 0 0.3 0"/>
<feBlend mode="normal" in2="BackgroundImageFix" result="effect1_dropShadow"/>
<feBlend mode="normal" in="SourceGraphic" in2="effect1_dropShadow" result="shape"/>
</filter>
<filter id="filter3_d" x="382" y="46" width="20" height="20" filterUnits="userSpaceOnUse" color-interpolation-filters="sRGB">
<feFlood flood-opacity="0" result="BackgroundImageFix"/>
<feColorMatrix in="SourceAlpha" type="matrix" values="0 0 0 0 0 0 0 0 0 0 0 0 0 0 0 0 0 0 127 0" result="hardAlpha"/>
<feOffset/>
<feGaussianBlur stdDeviation="2"/>
<feColorMatrix type="matrix" values="0 0 0 0 0 0 0 0 0 0 0 0 0 0 0 0 0 0 0.3 0"/>
<feBlend mode="normal" in2="BackgroundImageFix" result="effect1_dropShadow"/>
<feBlend mode="normal" in="SourceGraphic" in2="effect1_dropShadow" result="shape"/>
</filter>
<filter id="filter4_d" x="382" y="222" width="20" height="20" filterUnits="userSpaceOnUse" color-interpolation-filters="sRGB">
<feFlood flood-opacity="0" result="BackgroundImageFix"/>
<feColorMatrix in="SourceAlpha" type="matrix" values="0 0 0 0 0 0 0 0 0 0 0 0 0 0 0 0 0 0 127 0" result="hardAlpha"/>
<feOffset/>
<feGaussianBlur stdDeviation="2"/>
<feColorMatrix type="matrix" values="0 0 0 0 0 0 0 0 0 0 0 0 0 0 0 0 0 0 0.3 0"/>
<feBlend mode="normal" in2="BackgroundImageFix" result="effect1_dropShadow"/>
<feBlend mode="normal" in="SourceGraphic" in2="effect1_dropShadow" result="shape"/>
</filter>
<filter id="filter5_d" x="6" y="0" width="72" height="56" filterUnits="userSpaceOnUse" color-interpolation-filters="sRGB">
<feFlood flood-opacity="0" result="BackgroundImageFix"/>
<feColorMatrix in="SourceAlpha" type="matrix" values="0 0 0 0 0 0 0 0 0 0 0 0 0 0 0 0 0 0 127 0" result="hardAlpha"/>
<feOffset/>
<feGaussianBlur stdDeviation="8"/>
<feColorMatrix type="matrix" values="0 0 0 0 0 0 0 0 0 0 0 0 0 0 0 0 0 0 0.5 0"/>
<feBlend mode="normal" in2="BackgroundImageFix" result="effect1_dropShadow"/>
<feBlend mode="normal" in="SourceGraphic" in2="effect1_dropShadow" result="shape"/>
</filter>
</defs>
</svg>
