<svg width="345" height="358" viewBox="0 0 345 358" fill="none" xmlns="http://www.w3.org/2000/svg">
<g filter="url(#filter0_d)">
<path d="M321 16H166C161.582 16 158 19.5817 158 24V130C158 134.418 161.582 138 166 138H321C325.418 138 329 134.418 329 130V24C329 19.5817 325.418 16 321 16Z" fill="black"/>
</g>
<path d="M158 16H329V138H158V16Z" fill="#323D4B"/>
<path fill-rule="evenodd" clip-rule="evenodd" d="M158.5 16.5H328.5V137.5H158.5V16.5Z" stroke="#0E1118"/>
<path fill-rule="evenodd" clip-rule="evenodd" d="M158.5 16.5H328.5V137.5H158.5V16.5Z" stroke="#0E1118"/>
<g filter="url(#filter1_d)">
<path d="M295 42H140C135.582 42 132 45.5817 132 50V156C132 160.418 135.582 164 140 164H295C299.418 164 303 160.418 303 156V50C303 45.5817 299.418 42 295 42Z" fill="black"/>
</g>
<path d="M132 42H303V164H132V42Z" fill="#323D4B"/>
<path fill-rule="evenodd" clip-rule="evenodd" d="M132.5 42.5H302.5V163.5H132.5V42.5Z" stroke="#0E1118"/>
<path fill-rule="evenodd" clip-rule="evenodd" d="M132.5 42.5H302.5V163.5H132.5V42.5Z" stroke="#0E1118"/>
<g filter="url(#filter2_d)">
<path d="M268 68H113C108.582 68 105 71.5817 105 76V182C105 186.418 108.582 190 113 190H268C272.418 190 276 186.418 276 182V76C276 71.5817 272.418 68 268 68Z" fill="black"/>
</g>
<path d="M105 68H276V190H105V68Z" fill="#323D4B"/>
<path fill-rule="evenodd" clip-rule="evenodd" d="M105.5 68.5H275.5V189.5H105.5V68.5Z" stroke="#0E1118"/>
<g filter="url(#filter3_d)">
<path d="M242 95H87C82.5817 95 79 98.5817 79 103V209C79 213.418 82.5817 217 87 217H242C246.418 217 250 213.418 250 209V103C250 98.5817 246.418 95 242 95Z" fill="black"/>
</g>
<path d="M79 95H250V217H79V95Z" fill="#323D4B"/>
<path fill-rule="evenodd" clip-rule="evenodd" d="M79.5 95.5H249.5V216.5H79.5V95.5Z" stroke="#0E1118"/>
<g filter="url(#filter4_d)">
<path d="M23.2951 193.814L157.618 116.422C161.442 114.219 166.327 115.528 168.537 119.348L221.635 211.127C223.848 214.952 222.541 219.846 218.717 222.058L218.705 222.065L84.3813 299.456C80.5575 301.659 75.6726 300.35 73.4631 296.532L20.3639 204.751C18.1509 200.926 19.4584 196.033 23.2825 193.82L23.2946 193.813L23.2951 193.814Z" fill="black"/>
</g>
<path d="M15.9548 197.922L164.027 112.609L225.045 218.078L76.9727 303.391L15.9548 197.922Z" fill="#06A6ED"/>
<path fill-rule="evenodd" clip-rule="evenodd" d="M17.0723 197.952L164.278 113.139L224.796 217.741L77.5902 302.554L17.0723 197.952V197.952Z" stroke="#0E1118"/>
<path fill-rule="evenodd" clip-rule="evenodd" d="M16.738 112.606H225.262V303.273H16.738V112.606Z" stroke="#9AA3B1"/>
<g filter="url(#filter5_d)">
<path d="M16 309.521C19.3137 309.521 22 306.84 22 303.533C22 300.226 19.3137 297.545 16 297.545C12.6863 297.545 10 300.226 10 303.533C10 306.84 12.6863 309.521 16 309.521Z" fill="black"/>
</g>
<path d="M16 309.521C19.3137 309.521 22 306.84 22 303.533C22 300.226 19.3137 297.545 16 297.545C12.6863 297.545 10 300.226 10 303.533C10 306.84 12.6863 309.521 16 309.521Z" fill="white"/>
<g filter="url(#filter6_d)">
<path d="M16 117.855C19.3137 117.855 22 115.174 22 111.867C22 108.56 19.3137 105.879 16 105.879C12.6863 105.879 10 108.56 10 111.867C10 115.174 12.6863 117.855 16 117.855Z" fill="black"/>
</g>
<path d="M16 117.855C19.3137 117.855 22 115.174 22 111.867C22 108.56 19.3137 105.879 16 105.879C12.6863 105.879 10 108.56 10 111.867C10 115.174 12.6863 117.855 16 117.855Z" fill="white"/>
<g filter="url(#filter7_d)">
<path d="M225.524 309.521C228.838 309.521 231.524 306.84 231.524 303.533C231.524 300.226 228.838 297.545 225.524 297.545C222.21 297.545 219.524 300.226 219.524 303.533C219.524 306.84 222.21 309.521 225.524 309.521Z" fill="black"/>
</g>
<path d="M225.524 309.521C228.838 309.521 231.524 306.84 231.524 303.533C231.524 300.226 228.838 297.545 225.524 297.545C222.21 297.545 219.524 300.226 219.524 303.533C219.524 306.84 222.21 309.521 225.524 309.521Z" fill="white"/>
<g filter="url(#filter8_d)">
<path d="M225.524 117.855C228.838 117.855 231.524 115.174 231.524 111.867C231.524 108.56 228.838 105.879 225.524 105.879C222.21 105.879 219.524 108.56 219.524 111.867C219.524 115.174 222.21 117.855 225.524 117.855Z" fill="black"/>
</g>
<path d="M225.524 117.855C228.838 117.855 231.524 115.174 231.524 111.867C231.524 108.56 228.838 105.879 225.524 105.879C222.21 105.879 219.524 108.56 219.524 111.867C219.524 115.174 222.21 117.855 225.524 117.855Z" fill="white"/>
<g filter="url(#filter9_d)">
<path d="M55 318H20C17.7909 318 16 319.791 16 322V338C16 340.209 17.7909 342 20 342H55C57.2091 342 59 340.209 59 338V322C59 319.791 57.2091 318 55 318Z" fill="#FF69EB"/>
<path d="M25.458 334.238C27.502 334.238 28.804 332.866 28.804 330.64V324.242H23.232V326.048H26.83V330.528C26.83 331.746 26.452 332.404 25.458 332.404C24.548 332.404 24.114 331.9 24.044 330.682L22.098 330.906C22.238 332.992 23.526 334.238 25.458 334.238ZM33.4223 334.154C35.5923 334.154 36.9223 332.46 36.9223 330.542C36.9223 328.61 35.6063 326.944 33.4223 326.944C31.2243 326.944 29.9223 328.61 29.9223 330.542C29.9223 332.46 31.2383 334.154 33.4223 334.154ZM33.4223 332.488C32.2043 332.488 31.8123 331.522 31.8123 330.542C31.8123 329.534 32.2183 328.596 33.4223 328.596C34.6403 328.596 35.0323 329.534 35.0323 330.542C35.0323 331.536 34.6263 332.488 33.4223 332.488ZM42.0055 326.944C41.1235 326.944 40.4375 327.224 39.9895 327.812V324.242H38.0855V334H39.9895V331.368C39.9895 329.492 40.2975 328.596 41.4035 328.596C42.2155 328.596 42.6075 329.03 42.6075 329.954V334H44.4975V329.478C44.4975 327.882 43.5735 326.944 42.0055 326.944ZM50.0305 326.944C49.2465 326.944 48.5185 327.168 48.0145 327.812V327.098H46.1105V334H48.0145V331.004C48.0145 330.01 48.0145 328.596 49.4425 328.596C50.6325 328.596 50.6325 329.576 50.6325 330.08V334H52.5225V329.478C52.5225 327.896 51.6125 326.944 50.0305 326.944Z" fill="white"/>
</g>
<defs>
<filter id="filter0_d" x="142" y="0" width="203" height="154" filterUnits="userSpaceOnUse" color-interpolation-filters="sRGB">
<feFlood flood-opacity="0" result="BackgroundImageFix"/>
<feColorMatrix in="SourceAlpha" type="matrix" values="0 0 0 0 0 0 0 0 0 0 0 0 0 0 0 0 0 0 127 0" result="hardAlpha"/>
<feOffset/>
<feGaussianBlur stdDeviation="8"/>
<feColorMatrix type="matrix" values="0 0 0 0 0 0 0 0 0 0 0 0 0 0 0 0 0 0 0.5 0"/>
<feBlend mode="normal" in2="BackgroundImageFix" result="effect1_dropShadow"/>
<feBlend mode="normal" in="SourceGraphic" in2="effect1_dropShadow" result="shape"/>
</filter>
<filter id="filter1_d" x="116" y="26" width="203" height="154" filterUnits="userSpaceOnUse" color-interpolation-filters="sRGB">
<feFlood flood-opacity="0" result="BackgroundImageFix"/>
<feColorMatrix in="SourceAlpha" type="matrix" values="0 0 0 0 0 0 0 0 0 0 0 0 0 0 0 0 0 0 127 0" result="hardAlpha"/>
<feOffset/>
<feGaussianBlur stdDeviation="8"/>
<feColorMatrix type="matrix" values="0 0 0 0 0 0 0 0 0 0 0 0 0 0 0 0 0 0 0.5 0"/>
<feBlend mode="normal" in2="BackgroundImageFix" result="effect1_dropShadow"/>
<feBlend mode="normal" in="SourceGraphic" in2="effect1_dropShadow" result="shape"/>
</filter>
<filter id="filter2_d" x="89" y="52" width="203" height="154" filterUnits="userSpaceOnUse" color-interpolation-filters="sRGB">
<feFlood flood-opacity="0" result="BackgroundImageFix"/>
<feColorMatrix in="SourceAlpha" type="matrix" values="0 0 0 0 0 0 0 0 0 0 0 0 0 0 0 0 0 0 127 0" result="hardAlpha"/>
<feOffset/>
<feGaussianBlur stdDeviation="8"/>
<feColorMatrix type="matrix" values="0 0 0 0 0 0 0 0 0 0 0 0 0 0 0 0 0 0 0.5 0"/>
<feBlend mode="normal" in2="BackgroundImageFix" result="effect1_dropShadow"/>
<feBlend mode="normal" in="SourceGraphic" in2="effect1_dropShadow" result="shape"/>
</filter>
<filter id="filter3_d" x="63" y="79" width="203" height="154" filterUnits="userSpaceOnUse" color-interpolation-filters="sRGB">
<feFlood flood-opacity="0" result="BackgroundImageFix"/>
<feColorMatrix in="SourceAlpha" type="matrix" values="0 0 0 0 0 0 0 0 0 0 0 0 0 0 0 0 0 0 127 0" result="hardAlpha"/>
<feOffset/>
<feGaussianBlur stdDeviation="8"/>
<feColorMatrix type="matrix" values="0 0 0 0 0 0 0 0 0 0 0 0 0 0 0 0 0 0 0.5 0"/>
<feBlend mode="normal" in2="BackgroundImageFix" result="effect1_dropShadow"/>
<feBlend mode="normal" in="SourceGraphic" in2="effect1_dropShadow" result="shape"/>
</filter>
<filter id="filter4_d" x="0.360352" y="96.2576" width="241.279" height="223.363" filterUnits="userSpaceOnUse" color-interpolation-filters="sRGB">
<feFlood flood-opacity="0" result="BackgroundImageFix"/>
<feColorMatrix in="SourceAlpha" type="matrix" values="0 0 0 0 0 0 0 0 0 0 0 0 0 0 0 0 0 0 127 0" result="hardAlpha"/>
<feOffset/>
<feGaussianBlur stdDeviation="8"/>
<feColorMatrix type="matrix" values="0 0 0 0 0 0 0 0 0 0 0 0 0 0 0 0 0 0 0.5 0"/>
<feBlend mode="normal" in2="BackgroundImageFix" result="effect1_dropShadow"/>
<feBlend mode="normal" in="SourceGraphic" in2="effect1_dropShadow" result="shape"/>
</filter>
<filter id="filter5_d" x="6" y="293.545" width="20" height="19.976" filterUnits="userSpaceOnUse" color-interpolation-filters="sRGB">
<feFlood flood-opacity="0" result="BackgroundImageFix"/>
<feColorMatrix in="SourceAlpha" type="matrix" values="0 0 0 0 0 0 0 0 0 0 0 0 0 0 0 0 0 0 127 0" result="hardAlpha"/>
<feOffset/>
<feGaussianBlur stdDeviation="2"/>
<feColorMatrix type="matrix" values="0 0 0 0 0 0 0 0 0 0 0 0 0 0 0 0 0 0 0.3 0"/>
<feBlend mode="normal" in2="BackgroundImageFix" result="effect1_dropShadow"/>
<feBlend mode="normal" in="SourceGraphic" in2="effect1_dropShadow" result="shape"/>
</filter>
<filter id="filter6_d" x="6" y="101.879" width="20" height="19.976" filterUnits="userSpaceOnUse" color-interpolation-filters="sRGB">
<feFlood flood-opacity="0" result="BackgroundImageFix"/>
<feColorMatrix in="SourceAlpha" type="matrix" values="0 0 0 0 0 0 0 0 0 0 0 0 0 0 0 0 0 0 127 0" result="hardAlpha"/>
<feOffset/>
<feGaussianBlur stdDeviation="2"/>
<feColorMatrix type="matrix" values="0 0 0 0 0 0 0 0 0 0 0 0 0 0 0 0 0 0 0.3 0"/>
<feBlend mode="normal" in2="BackgroundImageFix" result="effect1_dropShadow"/>
<feBlend mode="normal" in="SourceGraphic" in2="effect1_dropShadow" result="shape"/>
</filter>
<filter id="filter7_d" x="215.524" y="293.545" width="20" height="19.976" filterUnits="userSpaceOnUse" color-interpolation-filters="sRGB">
<feFlood flood-opacity="0" result="BackgroundImageFix"/>
<feColorMatrix in="SourceAlpha" type="matrix" values="0 0 0 0 0 0 0 0 0 0 0 0 0 0 0 0 0 0 127 0" result="hardAlpha"/>
<feOffset/>
<feGaussianBlur stdDeviation="2"/>
<feColorMatrix type="matrix" values="0 0 0 0 0 0 0 0 0 0 0 0 0 0 0 0 0 0 0.3 0"/>
<feBlend mode="normal" in2="BackgroundImageFix" result="effect1_dropShadow"/>
<feBlend mode="normal" in="SourceGraphic" in2="effect1_dropShadow" result="shape"/>
</filter>
<filter id="filter8_d" x="215.524" y="101.879" width="20" height="19.976" filterUnits="userSpaceOnUse" color-interpolation-filters="sRGB">
<feFlood flood-opacity="0" result="BackgroundImageFix"/>
<feColorMatrix in="SourceAlpha" type="matrix" values="0 0 0 0 0 0 0 0 0 0 0 0 0 0 0 0 0 0 127 0" result="hardAlpha"/>
<feOffset/>
<feGaussianBlur stdDeviation="2"/>
<feColorMatrix type="matrix" values="0 0 0 0 0 0 0 0 0 0 0 0 0 0 0 0 0 0 0.3 0"/>
<feBlend mode="normal" in2="BackgroundImageFix" result="effect1_dropShadow"/>
<feBlend mode="normal" in="SourceGraphic" in2="effect1_dropShadow" result="shape"/>
</filter>
<filter id="filter9_d" x="0" y="302" width="75" height="56" filterUnits="userSpaceOnUse" color-interpolation-filters="sRGB">
<feFlood flood-opacity="0" result="BackgroundImageFix"/>
<feColorMatrix in="SourceAlpha" type="matrix" values="0 0 0 0 0 0 0 0 0 0 0 0 0 0 0 0 0 0 127 0" result="hardAlpha"/>
<feOffset/>
<feGaussianBlur stdDeviation="8"/>
<feColorMatrix type="matrix" values="0 0 0 0 0 0 0 0 0 0 0 0 0 0 0 0 0 0 0.5 0"/>
<feBlend mode="normal" in2="BackgroundImageFix" result="effect1_dropShadow"/>
<feBlend mode="normal" in="SourceGraphic" in2="effect1_dropShadow" result="shape"/>
</filter>
</defs>
</svg>
