<svg xmlns="http://www.w3.org/2000/svg" xmlns:xlink="http://www.w3.org/1999/xlink" width="119" height="48" viewBox="0 0 119 48">
    <defs>
        <path id="bke9rrrb5c" d="M1.781 3.067l-.006.009-.012.016-.007.01-.017.023-.007.01-.01.015-.01.012c-.002.005-.005.009-.009.013l-.015.021-.008.013-.01.014-.008.01-.01.016-.006.008-.02.029-.005.008-.011.016-.006.008-.036.054-.006.008-.01.016-.025.037-.006.01-.01.014-.007.01-.01.016-.008.012-.014.023-.008.013-.009.013-.01.015-.006.01c-.005.01-.01.017-.016.025l-.006.01-.01.018-.007.01-.016.025-.017.028-.004.007-.015.024-.038.063C.68 4.83.237 6.03 0 7.309L6.654 9.29.236 12.698c.318 1.134.807 2.187 1.45 3.101l.014.021.005.007.01.014.006.009.01.013.006.009.008.011.008.011.007.01.009.011.007.01.008.012.016.021C3.223 17.891 5.264 19 7.4 19c2.136 0 4.177-1.109 5.6-3.042 1.29-1.752 2-4.045 2-6.458 0-2.413-.71-4.706-2-6.458C11.577 1.109 9.536 0 7.4 0 5.264 0 3.223 1.109 1.8 3.042l-.019.025z"/>
        <path id="acyowrj6ud" d="M0 7.309L6.654 9.29.236 12.698c.337 1.2.864 2.31 1.564 3.26C3.223 17.891 5.264 19 7.4 19c2.136 0 4.177-1.109 5.6-3.042 1.29-1.752 2-4.045 2-6.458 0-2.413-.71-4.706-2-6.458C11.577 1.109 9.536 0 7.4 0 5.264 0 3.223 1.109 1.8 3.042.909 4.252.295 5.721 0 7.309z"/>
        <path id="40mk6qfoxi" d="M1.781 3.067l-.006.009-.012.016-.007.01-.017.023-.007.01-.01.015-.01.012c-.002.005-.005.009-.009.013l-.015.021-.008.013-.01.014-.008.01-.01.016-.006.008-.02.029-.005.008-.011.016-.006.008-.036.054-.006.008-.01.016-.025.037-.006.01-.01.014-.007.01-.01.016-.008.012-.014.023-.008.013-.009.013-.01.015-.006.01c-.005.01-.01.017-.016.025l-.006.01-.01.018-.007.01-.016.025-.017.028-.004.007-.015.024-.038.063C.68 4.83.237 6.03 0 7.309L6.654 9.29.236 12.698c.318 1.134.807 2.187 1.45 3.101l.014.021.005.007.01.014.006.009.01.013.006.009.008.011.008.011.007.01.009.011.007.01.008.012.016.021C3.223 17.891 5.264 19 7.4 19c2.136 0 4.177-1.109 5.6-3.042 1.29-1.752 2-4.045 2-6.458 0-2.413-.71-4.706-2-6.458C11.577 1.109 9.536 0 7.4 0 5.264 0 3.223 1.109 1.8 3.042l-.019.025z"/>
        <path id="ocayo5kz0j" d="M0 7.309L6.654 9.29.236 12.698c.337 1.2.864 2.31 1.564 3.26C3.223 17.891 5.264 19 7.4 19c2.136 0 4.177-1.109 5.6-3.042 1.29-1.752 2-4.045 2-6.458 0-2.413-.71-4.706-2-6.458C11.577 1.109 9.536 0 7.4 0 5.264 0 3.223 1.109 1.8 3.042.909 4.252.295 5.721 0 7.309z"/>
        <linearGradient id="0lz6tbgdze" x1="28.381%" x2="68.717%" y1="11.912%" y2="90.021%">
            <stop offset="0%" stop-color="#FF4CBD"/>
            <stop offset="34%" stop-color="#CCF657"/>
            <stop offset="68%" stop-color="#27C094"/>
            <stop offset="100%" stop-color="#6919D1"/>
        </linearGradient>
        <linearGradient id="egekjr7ual" x1="0%" x2="100%" y1="41.484%" y2="58.516%">
            <stop offset="0%" stop-color="#FF4CBD"/>
            <stop offset="34%" stop-color="#CCF657"/>
            <stop offset="68%" stop-color="#27C094"/>
            <stop offset="100%" stop-color="#6919D1"/>
        </linearGradient>
        <ellipse id="eoyajg4oza" cx="12.5" cy="14" rx="11.5" ry="13"/>
        <ellipse id="ivsqpset8g" cx="12.5" cy="14" rx="11.5" ry="13"/>
    </defs>
    <g fill="none" fill-rule="evenodd">
        <g>
            <g>
                <g>
                    <g transform="translate(-392.000000, -16.000000) translate(392.000000, 16.000000) translate(23.000000, 10.000000)">
                        <path fill="#181B22" fill-rule="nonzero" d="M12.5 0C5.567 0 0 6.293 0 14s5.567 14 12.5 14S25 21.707 25 14 19.433 0 12.5 0zm0 1C18.851 1 24 6.82 24 14s-5.149 13-11.5 13S1 21.18 1 14 6.149 1 12.5 1z"/>
                        <mask id="o05ksln9ib" fill="#fff">
                            <use xlink:href="#eoyajg4oza"/>
                        </mask>
                        <use fill="#FFF" fill-rule="nonzero" xlink:href="#eoyajg4oza"/>
                        <g mask="url(#o05ksln9ib)">
                            <g transform="translate(10.000000, 9.000000)">
                                <mask id="oq42tmgn8f" fill="#fff">
                                    <use xlink:href="#acyowrj6ud"/>
                                </mask>
                                <use fill="url(#0lz6tbgdze)" fill-rule="nonzero" xlink:href="#acyowrj6ud"/>
                                <path fill="#181B22" fill-rule="nonzero" d="M12.5 9.5c0 3.866-2.238 7-5 7-2.761 0-5-3.134-5-7s2.239-7 5-7c2.762 0 5 3.134 5 7" mask="url(#oq42tmgn8f)"/>
                            </g>
                        </g>
                    </g>
                    <g transform="translate(-392.000000, -16.000000) translate(392.000000, 16.000000) translate(0.000000, 10.000000)">
                        <path fill="#181B22" fill-rule="nonzero" d="M12.5 0C5.567 0 0 6.293 0 14s5.567 14 12.5 14S25 21.707 25 14 19.433 0 12.5 0zm0 1C18.851 1 24 6.82 24 14s-5.149 13-11.5 13S1 21.18 1 14 6.149 1 12.5 1z"/>
                        <mask id="ga5vok48ph" fill="#fff">
                            <use xlink:href="#ivsqpset8g"/>
                        </mask>
                        <use fill="#FFF" fill-rule="nonzero" xlink:href="#ivsqpset8g"/>
                        <g mask="url(#ga5vok48ph)">
                            <g transform="translate(10.000000, 9.000000)">
                                <mask id="i79kgim87k" fill="#fff">
                                    <use xlink:href="#ocayo5kz0j"/>
                                </mask>
                                <use fill="url(#0lz6tbgdze)" fill-rule="nonzero" xlink:href="#ocayo5kz0j"/>
                                <path fill="#181B22" fill-rule="nonzero" d="M12.5 9.5c0 3.866-2.238 7-5 7-2.761 0-5-3.134-5-7s2.239-7 5-7c2.762 0 5 3.134 5 7" mask="url(#i79kgim87k)"/>
                            </g>
                        </g>
                    </g>
                </g>
                <g fill="url(#egekjr7ual)" fill-rule="nonzero" transform="translate(-392.000000, -16.000000) translate(392.000000, 16.000000) translate(56.000000, 0.000000)">
                    <path d="M29.998 11c.553 0 1.002.46 1.002 1.029v4.1c0 .568-.449 1.029-1.002 1.029h-5.143c-.277 0-.5.23-.5.514v2.735c0 .284.223.514.5.514h4.642c.553 0 1.002.46 1.002 1.029v4.1c0 .568-.449 1.029-1.002 1.029h-4.642c-.277 0-.5.23-.5.514v2.735c0 .284.223.514.5.514h5.143c.553 0 1.002.46 1.002 1.029v4.1C31 36.54 30.551 37 29.998 37h-6.99C20.243 37 18 34.697 18 31.856V16.144C18 13.303 20.242 11 23.009 11zm14 0c.553 0 1.002.46 1.002 1.029v4.1c0 .568-.449 1.029-1.002 1.029h-5.143c-.277 0-.5.23-.5.514v2.735c0 .284.223.514.5.514h4.642c.553 0 1.002.46 1.002 1.029v4.1c0 .568-.449 1.029-1.002 1.029h-4.642c-.277 0-.5.23-.5.514v2.735c0 .284.223.514.5.514h5.143c.553 0 1.002.46 1.002 1.029v4.1C45 36.54 44.551 37 43.998 37h-6.99C34.243 37 32 34.697 32 31.856V16.144C32 13.303 34.242 11 37.009 11zm-32.054 0C14.736 11 17 13.303 17 16.144v8.879c0 2.84-2.264 5.144-5.056 5.144h-.805c-.38-.01-.894-.015-1.442-.016H8.86c-1.118.002-2.18.013-2.403.015h-.042v5.805c0 .568-.453 1.029-1.012 1.029H1.011C.453 37 0 36.54 0 35.971V16.144C0 13.303 2.264 11 5.056 11zm46 0C60.736 11 63 13.303 63 16.144v8.879c0 2.84-2.264 5.144-5.056 5.144h-.805c-.38-.01-.894-.015-1.442-.016h-.837c-1.118.002-2.18.013-2.403.015h-.042v5.805c0 .568-.453 1.029-1.012 1.029h-4.392C46.453 37 46 36.54 46 35.971V16.144C46 13.303 48.264 11 51.056 11zm-47.696 6.158H6.752c-.187 0-.337.153-.337.343v6.165c0 .19.15.343.337.343h3.496c.186 0 .337-.154.337-.343V17.5c0-.19-.15-.343-.337-.343zm46 0h-3.496c-.187 0-.337.153-.337.343v6.165c0 .19.15.343.337.343h3.496c.186 0 .337-.154.337-.343V17.5c0-.19-.15-.343-.337-.343z"/>
                </g>
            </g>
        </g>
    </g>
</svg>
